<?xml version="1.0" encoding="utf-8"?>
<!-- Generator: Adobe Illustrator 25.2.3, SVG Export Plug-In . SVG Version: 6.00 Build 0)  -->
<svg version="1.1" id="Layer_1" xmlns="http://www.w3.org/2000/svg" xmlns:xlink="http://www.w3.org/1999/xlink" x="0px" y="0px"
	 viewBox="0 0 603 512" style="enable-background:new 0 0 603 512;" xml:space="preserve">
<path d="M493,64H109c-35.3,0-64,28.7-64,64v256c0,35.3,28.7,64,64,64h384c35.3,0,64-28.7,64-64V128C557,92.7,528.3,64,493,64z
	 M387.7,234.8l135.5-116.1c0.9,3,1.9,6,1.9,9.3v256c0,2.2-0.8,4.2-1.3,6.3L387.7,234.8z M493,96c2.1,0,4,0.8,6,1.2L301,266.9
	L103,97.2c2-0.4,3.9-1.2,6-1.2H493z M78.3,390.2c-0.4-2.1-1.3-4-1.3-6.2V128c0-3.3,1-6.3,1.9-9.3l135.4,116.1L78.3,390.2z M109,416
	c-3.2,0-6.2-0.9-9.1-1.8l138.8-158.6l52,44.5c3,2.6,6.7,3.9,10.4,3.9s7.4-1.3,10.4-3.9l52-44.5l138.8,158.6
	c-2.9,0.9-5.9,1.8-9.1,1.8H109z"/>
</svg>
